<?xml version="1.0"?><svg version="1.2" baseProfile="tiny-ps" viewBox="0 0 300 300" xmlns="http://www.w3.org/2000/svg" xmlns:xlink="http://www.w3.org/1999/xlink"><title>VisGroup</title><g><g fill="#e0ebfe" transform="matrix(.1 0 0 -.1 0 300)"><path d="M0 1500V0h3000v3000H0V1500z"/></g><g fill="#b8c9ec" transform="matrix(.1 0 0 -.1 0 300)"><path d="M0 1500V0h3000v3000H0V1500zm1138 1033c-9-10-14-23-12-28l4-10-249-249-249-248-11 7-11 6 6 10 5 9 10-5 9-6-6 15-6 15 256 257 256 258 7-7 6-7-15-17zm-3-383-18-20h38l-240-241c-132-132-252-247-267-255l-27-14-6 10-6 10 263 265c145 146 267 265 272 265h9l-18-20zm1503-557-93-93 97-98 96-97-120-115-121-115 8 24 7 24-13-8c-8-4 28 35 79 86 50 52 92 98 92 103 0 11-140 159-155 165-5 2-16 8-23 14l-13 10 95 96 95 96-80 84-81 84 14 8 13 9h-36l6 10 6 10h-9c-5 0-12 10-15 22l-6 22 124-124 125-125-92-92zm-843 227 6-10-23-78-23-77-5 50-5 50 9 38 8 37h14c7 0 16-5 19-10zm-426-395 49-170 1-70v-70l-10 25c-5 13-33 103-61 200l-50 175-5 80-4 80 16-40c8-22 37-116 64-210zm-739-55c0-5-5-10-11-10h-10l6 10c3 6 8 10 11 10 2 0 4-4 4-10zm266-261 239-239v-24l1-24-102 94c-92 86-405 408-412 423-1 4 6 7 16 8l19 2 239-240zm-276-109c-8-5-19-10-25-10h-10l15 10c8 5 20 10 25 10h10l-15-10zm279-262 252-251-13-9-13-8 15-9c8-6 12-12 10-15-6-5-297 278-439 426l-93 97 7 11c3 5 10 10 14 10s121-113 260-252zm1612 756 1-19 5 13c3 7 2 16-1 19-3 4-6-2-5-13z"/></g><g fill="#96a5c6" transform="matrix(.1 0 0 -.1 0 300)"><path d="M0 1500V0h3000v3000H0V1500zm1370 1270c0-5-5-10-11-10h-10l6 10c3 6 8 10 11 10 2 0 4-4 4-10zm-33-34-6-15 17 6 17 6-119-124c-66-68-297-299-513-514-217-214-394-395-393-400 0-6 35-45 78-88l77-77 430 430 430 429 3-21 4-22-11-4c-6-2-11-9-11-15 0-7-225-237-500-512s-500-503-500-508c0-4 226-232 501-506l501-499-6-10-6-10 15-6 15-5v-16c0-8-5-15-11-15-11 0-733 716-943 936l-129 135 93 94 93 94-91 96-92 96 9 17c13 23 1035 1042 1045 1042h8l-5-14zm1042-699c80-79 193-189 251-245l105-101-93-94-93-93 98-98 98-97-240-235-239-236-6 18-7 18-7-12c-4-7-5-16-2-20l5-8h-19c-11 0-17 3-14 6 47 45 450 464 452 469 1 3-33 41-75 83l-78 77-130-127c-71-70-139-134-149-142l-19-15 13 25 13 25-16-14-17-13v10c0 5 7 15 15 22l14 12 12-8 12-7-8 12-7 13 203 204 204 205v28l-180 183c-100 101-200 204-223 231l-43 47 6 10c3 6 9 10 12 10s71-64 152-143zm-1096-308c15-52 62-211 104-354l76-260 2-85 3-85-30 90c-16 50-74 245-129 434l-99 345 12 8c24 15 32 2 61-93zm517 81c0-23-108-368-122-390l-9-15 7 30c7 31 7 37 2 70l-3 20 11-2 11-2-5 25-4 25 17 62c9 34 25 92 36 130l20 67h39v-20zm438-38 4-12h-10c-5 0-13 7-16 16l-6 16 12-4c6-2 14-10 16-16zM987 1025l372-375-5-15c-4-8-10-15-15-15-6 0-179 168-386 373l-376 374 6 16c3 9 12 17 19 17l13 1 372-376zm1253-208c0-2-11-14-25-27s-25-21-25-17c0 3 10 15 22 27 21 19 28 24 28 17z"/></g><g fill="#7684a1" transform="matrix(.1 0 0 -.1 0 300)"><path d="M0 1500V0h3000v3000H0V1500zm1639 1258 10-28h-7c-4 0-39 28-77 63l-70 63-579-584-580-583 79-79 80-80 500 500 500 500 75-75c41-41 71-75 66-75-4 0 2-8 14-18l22-18-19-1-18-1-69 62-69 63-580-579c-318-319-577-581-575-583 67-72 1163-1165 1167-1165s36 29 71 65 67 65 71 65 10-7 13-16l6-16-15 6-15 5v-35l-70-69-70-70-615 615-615 615 95 95 96 96-95 100-95 99 612 612 612 613 67-67 67-67 10-28zm431-412c102-99 293-288 425-418l240-238-92-92-93-93 98-98 97-97-329-328c-181-180-383-379-449-442l-120-115 17 27 18 27-6 9-5 9 401 407 401 407-74 75-74 75-12-3c-7-2-151-141-321-311-170-169-315-307-321-307h-11l2 12c2 7 6 15 9 18s13 16 22 29c9 14 146 156 304 316 159 160 328 332 378 383l90 92-360 363c-340 342-455 460-455 470 0 2 8 4 18 4h17l185-181zm0-389 182-177-6-15c-3-8-12-15-20-15h-14l-168 176-169 177 3 13 3 14-18-7-18-6 7 8 8 8-13 15-12 15 26-14c15-8 109-94 209-192zm-792-207c13-41 68-230 123-419 54-189 101-346 104-349 2-3 8 6 13 19s12 31 15 39l5 15 2-35c3-49 0-79-11-123l-10-38-17 3-16 3-34 110c-18 61-80 272-138 470l-104 359 5 14 5 13 17-3 17-3 24-75zm522 59c0-19-73-269-157-537l-35-112-10 6-10 6 7 52c4 28 29 132 57 231 117 423 101 375 129 375h19v-21zm-746-849c242-242 441-440 444-440s34 28 69 61l64 62 10-10 11-11-19-22c-10-13-45-52-78-87l-60-64-459 460-459 459 6 16c4 9 12 16 20 16h13l438-440z"/></g><g fill="#354051" transform="matrix(.1 0 0 -.1 0 300)"><path d="M0 1500V0h3000v3000H0V1500zm2122 803 618-618-92-92-93-93 95-95 95-95-620-620-620-620-620 620-620 620 94 94 94 95-92 97-92 98 202 205c265 269 1023 1020 1029 1021 3 0 283-278 622-617zm-1204-30-577-578 74-80c41-44 76-77 79-75 3 3 218 217 478 475 260 259 486 481 501 495l28 24 374-374 375-375v-35h-35l-357 357-358 358-580-580-580-580 583-583 582-582 582 582 583 583-76 78-76 77-407-399c-223-220-453-447-511-505l-105-106-457 457-458 458v35h35l440-440 439-439 106 104c59 57 322 319 584 583l478 480-578 581c-317 320-580 581-583 581s-266-260-583-577zm392-621c29-97 84-285 122-417 38-131 71-241 73-244 3-2 7 2 9 10 28 88 60 195 141 479l96 335 12 13 13 12 17-12 17-13-140-470c-77-258-144-473-149-478l-10-10-14 6-14 5-26 84c-50 162-237 803-243 837l-7 33 13 8c7 5 19 6 25 3l12-4 53-177z"/></g><g fill="#020306" transform="matrix(.1 0 0 -.1 0 300)"><path d="M0 1500V0h3000v3000H0V1500zm2395 537 350-346-92-93-93-93 97-97 98-98-620-620c-341-341-624-620-630-620-5 0-288 278-627 617l-618 618 96 96 95 96-95 99-95 99 617 617 617 618 275-273c151-151 433-429 625-620zM920 2268c-311-313-567-571-569-574-3-2 29-38 69-79l75-75 502 502 503 503 381-381 381-382-4-13c-2-7-12-17-21-23l-17-11-363 363-362 362-575-575-575-575 580-580 580-580 580 580 580 580-75 75-75 75-505-505c-278-278-510-505-515-505-6 0-217 207-469 459l-459 459 6 16c4 9 14 19 23 23l16 6 444-444 444-444 580 580 580 580-577 577c-318 318-582 577-588 577-5-1-264-258-575-571zm337-440c8-11 71-221 225-751l22-77 7 12c3 7 50 164 104 348 135 466 136 469 146 476 5 3 18 2 29-1l20-6v-13c0-6-62-223-138-481l-139-469-16-10-16-11-11 11c-12 12-53 146-206 668l-84 289 11 13c14 17 34 18 46 2z"/></g></g></svg>